<svg width="24" height="32" viewBox="0 0 24 32" fill="none" xmlns="http://www.w3.org/2000/svg">
<path d="M19.2934 13.4808V6.91906C19.2284 5.06238 18.4328 3.30313 17.0746 2.01231C15.7163 0.721487 13.9016 0 12.013 0C10.1244 0 8.30962 0.721487 6.95138 2.01231C5.59314 3.30313 4.79759 5.06238 4.73252 6.91906V13.4638C3.3003 14.2378 2.10559 15.3759 1.27313 16.7591C0.440673 18.1424 0.000993055 19.7201 0 21.3276V23.0298C0.00457959 25.4089 0.967982 27.6892 2.679 29.3707C4.39001 31.0522 6.70902 31.9978 9.12761 32H14.8724C17.2925 31.9977 19.6128 31.0511 21.3241 29.3677C23.0353 27.6843 23.9977 25.4019 24 23.0212V21.3191C23.9969 19.7185 23.559 18.1478 22.7315 16.7697C21.9039 15.3915 20.717 14.2561 19.2934 13.4808ZM9.40447 25.9404L8.323 27.0042L7.1031 25.8042L8.18457 24.7404C5.33814 20.6127 10.4081 15.6255 14.5955 18.434L15.677 17.3702L16.8969 18.5787L15.8154 19.6425C16.3856 20.5189 16.6341 21.5606 16.5197 22.595C16.4053 23.6293 15.9348 24.5941 15.1864 25.3293C14.438 26.0645 13.4566 26.526 12.4049 26.6371C11.3533 26.7483 10.2946 26.5025 9.40447 25.9404ZM6.46287 6.91906C6.72242 -0.289472 17.3035 -0.289472 17.5631 6.91906V12.7489C16.6913 12.4851 15.7845 12.3503 14.8724 12.3489C12.9863 12.4255 8.21053 12.085 6.46287 12.7404V6.91906ZM14.5955 20.8595C14.8133 21.2665 14.929 21.7188 14.9329 22.1787C14.9367 22.6699 14.8113 23.1536 14.5691 23.5831C14.3269 24.0126 13.9759 24.3733 13.5503 24.6302C13.1247 24.887 12.6389 25.0313 12.1399 25.0492C11.6409 25.067 11.1457 24.9577 10.7022 24.7319L14.5955 20.8595ZM13.367 19.6595L9.40447 23.4893C9.1168 22.9538 9.01111 22.3417 9.1029 21.7428C9.1947 21.1438 9.47915 20.5896 9.91455 20.1613C10.3499 19.733 10.9134 19.4532 11.5222 19.3629C12.1311 19.2726 12.7534 19.3766 13.2978 19.6595H13.367Z" fill="url(#paint0_linear_5_11)"/>
<defs>
<linearGradient id="paint0_linear_5_11" x1="12" y1="32" x2="12" y2="-0.238408" gradientUnits="userSpaceOnUse">
<stop stop-color="#FA8BFF"/>
<stop offset="1" stop-color="#2BD2FF"/>
</linearGradient>
</defs>
</svg>
